<svg id="Layer_1" data-name="Layer 1" xmlns="http://www.w3.org/2000/svg" viewBox="0 0 596 596"><defs><style>.cls-1{fill:#1c3664;}.cls-2{fill:none;}.cls-2,.cls-3{stroke:#fff;stroke-miterlimit:10;stroke-width:2px;}.cls-3,.cls-5{fill:#fff;}.cls-4{fill:#fefefe;}.cls-5{font-size:36px;font-family:LucidaSans, Lucida Sans;}</style></defs><rect class="cls-1" width="596" height="596" rx="100.72"/><rect class="cls-2" x="123" y="260" width="350" height="80" rx="25.14"/><path class="cls-3" d="M196,288.77v-4.06a1.79,1.79,0,0,0-1.86-1.71h-6.28a1.79,1.79,0,0,0-1.86,1.71v4.06a1.84,1.84,0,0,1-2.54,1.58l-3.66-1.71a2,2,0,0,0-2,.38l-3.22,3.58a1.93,1.93,0,0,0,.56,3.08l4.38,2.95a2.14,2.14,0,0,1,0,3.74l-4.38,2.95a1.93,1.93,0,0,0-.56,3.08L177.8,312a2,2,0,0,0,2,.38l3.66-1.71a1.84,1.84,0,0,1,2.54,1.58v4.06a1.79,1.79,0,0,0,1.86,1.71h6.28a1.79,1.79,0,0,0,1.86-1.71v-4.06a1.84,1.84,0,0,1,2.54-1.58l3.66,1.71a2,2,0,0,0,2-.38l3.22-3.58a1.93,1.93,0,0,0-.56-3.08l-4.38-2.95a2.14,2.14,0,0,1,0-3.74l4.38-2.95a1.93,1.93,0,0,0,.56-3.08L204.2,289a2,2,0,0,0-2-.38l-3.66,1.71A1.84,1.84,0,0,1,196,288.77Z"/><path class="cls-3" d="M255,288.77v-4.06a1.79,1.79,0,0,0-1.86-1.71h-6.28a1.79,1.79,0,0,0-1.86,1.71v4.06a1.84,1.84,0,0,1-2.54,1.58l-3.66-1.71a2,2,0,0,0-2,.38l-3.22,3.58a1.93,1.93,0,0,0,.56,3.08l4.38,2.95a2.14,2.14,0,0,1,0,3.74l-4.38,2.95a1.93,1.93,0,0,0-.56,3.08L236.8,312a2,2,0,0,0,2,.38l3.66-1.71a1.84,1.84,0,0,1,2.54,1.58v4.06a1.79,1.79,0,0,0,1.86,1.71h6.28a1.79,1.79,0,0,0,1.86-1.71v-4.06a1.84,1.84,0,0,1,2.54-1.58l3.66,1.71a2,2,0,0,0,2-.38l3.22-3.58a1.93,1.93,0,0,0-.56-3.08l-4.38-2.95a2.14,2.14,0,0,1,0-3.74l4.38-2.95a1.93,1.93,0,0,0,.56-3.08L263.2,289a2,2,0,0,0-2-.38l-3.66,1.71A1.84,1.84,0,0,1,255,288.77Z"/><path class="cls-3" d="M314,288.77v-4.06a1.79,1.79,0,0,0-1.86-1.71h-6.28a1.79,1.79,0,0,0-1.86,1.71v4.06a1.84,1.84,0,0,1-2.54,1.58l-3.66-1.71a2,2,0,0,0-2,.38l-3.22,3.58a1.93,1.93,0,0,0,.56,3.08l4.38,2.95a2.14,2.14,0,0,1,0,3.74l-4.38,2.95a1.93,1.93,0,0,0-.56,3.08L295.8,312a2,2,0,0,0,2,.38l3.66-1.71a1.84,1.84,0,0,1,2.54,1.58v4.06a1.79,1.79,0,0,0,1.86,1.71h6.28a1.79,1.79,0,0,0,1.86-1.71v-4.06a1.84,1.84,0,0,1,2.54-1.58l3.66,1.71a2,2,0,0,0,2-.38l3.22-3.58a1.93,1.93,0,0,0-.56-3.08l-4.38-2.95a2.14,2.14,0,0,1,0-3.74l4.38-2.95a1.93,1.93,0,0,0,.56-3.08L322.2,289a2,2,0,0,0-2-.38l-3.66,1.71A1.84,1.84,0,0,1,314,288.77Z"/><rect class="cls-3" x="350" y="309" width="73" height="9"/><path class="cls-4" d="M266.77,99.1c6.77-8.18,14.94-13.68,25.81-15.34A38.77,38.77,0,0,1,332,103.06c.56,1,1.13,2,1.7,3,3.49,6.34,3.55,13.4,3.9,20.3a113.32,113.32,0,0,1-.2,18.42c-.3,2.71,1,3.46,3.34,3.72,9.42,1,11.21,4.87,10.18,16.42a290.25,290.25,0,0,0,.12,55.3c.86,8.51-2.51,13-10.17,13q-42.92.1-85.82,0c-6.11,0-10.21-4.16-10.23-10.34q-.09-31.41,0-62.81c0-7.29,3.45-11.09,10.65-11.59,3.52-.24,3.76-1.91,3.63-4.93-.42-10.09-1-20.19,1.08-30.24A36.06,36.06,0,0,1,266.77,99.1Z"/><path class="cls-1" d="M298,148.79c-6,0-12,0-17.93,0-5.38,0-5.4,0-5.41-5.11,0-7.13.17-14.27,0-21.4a23.37,23.37,0,0,1,22.5-23.84,23,23,0,0,1,24.39,21.33c.77,8.56.21,17.23.33,25.86,0,2.85-1.71,3.2-3.91,3.19-6.65,0-13.29,0-19.93,0Z"/><path class="cls-1" d="M299,218.81c-2,0-4-.08-6,0-3.14.16-4.13-1.22-3.66-4.26,1.33-8.52,2.41-17.08,3.83-25.59.44-2.67.29-4.69-1.77-6.73-3.4-3.36-4.17-7.45-2-11.83a9.77,9.77,0,0,1,9.66-5.74c4.64.18,7.73,2.66,9.47,6.87,1.67,4,.59,7.57-2.3,10.47-2.11,2.12-2.44,4.12-1.89,7.09,1.61,8.64,2.66,17.37,4,26.07.39,2.64-.88,3.67-3.37,3.64-2,0-4,0-6,0Z"/><text class="cls-5" transform="translate(88.5 434.49)">PASSWORD GENERATOR</text></svg>